Coordinates
version=1
nRows=19
nColumns=36
inDegrees=yes

Units are S.I. units (second, meters, Newtons, ...)
If the header above contains a line with 'inDegrees', this indicates whether rotational values are in degrees (yes) or radians (no).

endheader
time	pelvis_tilt	pelvis_list	pelvis_rotation	pelvis_tx	pelvis_ty	pelvis_tz	hip_flexion_r	hip_adduction_r	hip_rotation_r	knee_angle_r	knee_angle_r_beta	ankle_angle_r	subtalar_angle_r	mtp_angle_r	hip_flexion_l	hip_adduction_l	hip_rotation_l	knee_angle_l	knee_angle_l_beta	ankle_angle_l	subtalar_angle_l	mtp_angle_l	lumbar_extension	lumbar_bending	lumbar_rotation	arm_flex_r	arm_add_r	arm_rot_r	elbow_flex_r	pro_sup_r	arm_flex_l	arm_add_l	arm_rot_l	elbow_flex_l	pro_sup_l
      2.55000000	     -2.72725828	      0.34820991	     -0.32705737	      0.22240276	      1.20857552	     -0.57120210	     12.73709376	     -0.90437015	      4.76911070	     36.41593467	      0.63557796	     25.02550487	     -9.93059330	     -7.49999987	     14.59896597	     -2.94325661	     -2.43693067	     37.74392785	      0.65875581	     21.92424163	     -2.25449177	     -7.49999987	    -17.84346496	      3.99333795	      7.60090035	    -46.24137789	    -27.79634947	     -6.55556401	     75.55586571	     61.47811074	    -22.93608773	    -27.39859087	     19.95966643	     60.87802641	     58.39606795
      2.56666670	     -3.38448921	      0.41840763	     -0.40089698	      0.22307936	      1.19924333	     -0.57086238	     15.04495502	     -0.90090882	      4.90212344	     40.03160093	      0.69868324	     27.10132920	     -9.57441227	     -7.49999987	     16.83382574	     -2.94277778	     -2.37112090	     41.25252327	      0.71999236	     23.87698856	     -2.27766117	     -7.49999987	    -18.34833049	      3.37162557	      6.69746293	    -43.93945933	    -26.42793387	     -6.15900611	     73.78002673	     69.47206396	    -24.93029807	    -25.06479407	     14.96030865	     59.65304012	     66.18269570
      2.58333330	     -4.20638867	      0.44650618	     -0.36576098	      0.21633117	      1.18897923	     -0.56804622	     17.75000282	     -0.81242846	      4.91941108	     43.92742670	      0.76667823	     29.58972264	     -8.83312700	     -7.49999987	     19.46985243	     -3.11790904	     -2.41397965	     44.78428485	      0.78163322	     25.88511388	     -1.91372340	     -7.49999987	    -18.70705797	      2.90083931	      6.89600731	    -42.06053600	    -24.38742116	     -5.52412865	     72.52714259	     68.32379330	    -24.72986196	    -24.54207566	     14.59930342	     58.85179657	     65.39644579
      2.60000000	     -4.95675349	      0.41673903	     -0.46091802	      0.22445886	      1.17028600	     -0.57140745	     20.37334979	     -0.64220058	      4.97469763	     47.94529658	      0.83680329	     32.60437328	     -7.67184709	     -7.49999987	     21.74306627	     -3.32193348	     -2.40476617	     48.19382277	      0.84114089	     27.86923830	     -1.78577227	     -7.49999987	    -19.06214043	      2.57084572	      7.89360036	    -40.51318626	    -22.33921148	     -5.85887705	     72.64164550	     73.50059740	    -24.19145909	    -24.44348692	     14.90542825	     58.30778814	     67.88556144
      2.61666670	     -5.46677621	      0.41872243	     -0.58879247	      0.22483264	      1.15476192	     -0.57229465	     22.94444453	     -0.50944889	      4.96855502	     52.44810760	      0.91539216	     35.95673637	     -6.27930475	     -7.49999987	     23.73983111	     -3.60434577	     -2.57143599	     51.93557697	      0.90644682	     29.94042469	     -1.56753643	     -7.49999987	    -19.58525451	      2.02197926	      8.86474370	    -37.95096252	    -20.44962449	     -5.32700061	     72.13099940	     73.44950912	    -23.32303135	    -24.02503393	     14.59123067	     57.69627817	     67.67786556
      2.63333330	     -6.16139096	      0.43994519	     -0.62684827	      0.22522758	      1.14324376	     -0.57197262	     25.72552991	     -0.46504608	      4.83493236	     56.95875122	      0.99411775	     39.22167799	     -4.94123287	     -7.49999987	     25.94659138	     -3.84580936	     -2.49807741	     55.64865282	      0.97125222	     31.89794717	     -1.36348616	     -7.49999987	    -19.87013102	      1.58429339	      9.45470796	    -33.60034390	    -18.72057436	     -4.96479386	     69.51653795	     72.40629077	    -21.64819863	    -23.11389006	     13.83784923	     55.81575503	     66.76805380
      2.65000000	     -7.23002139	      0.58640152	     -0.53950866	      0.22097660	      1.14161140	     -0.57704647	     28.45352282	     -0.66184878	      4.74015751	     60.35847562	      1.05345413	     41.42769006	     -4.17864213	     -7.49999987	     28.35171458	     -3.82022402	     -2.47409908	     58.67357584	      1.02404708	     32.91836542	     -1.73891329	     -7.49999987	    -19.98790281	      1.54854146	      9.36740358	    -27.85703125	    -17.53351353	     -4.79939771	     65.98405731	     73.25558941	    -17.99979842	    -20.81431470	     13.33851564	     50.94866766	     66.70940664
      2.66666670	     -7.56711216	      0.68783124	     -0.65187698	      0.23522496	      1.12408071	     -0.57457503	     30.02208200	     -0.68596955	      4.78340662	     63.52985911	      1.10880521	     43.70094517	     -3.28273686	     -7.49999987	     29.71910833	     -3.91242415	     -2.56546243	     61.81774237	      1.07892314	     33.92399158	     -2.25249860	     -7.49999987	    -20.39131076	      1.45245092	      9.22974732	    -23.02089370	    -16.24604996	     -4.82848614	     63.59091876	     74.06672459	    -15.41458689	    -18.78326909	     11.98915736	     46.63688213	     66.63492960
      2.68333330	     -7.81103507	      0.77945653	     -0.54263434	      0.23553532	      1.11902509	     -0.57508630	     31.09187953	     -0.81607140	      4.68638207	     65.99993987	      1.15191626	     45.36306695	     -2.80348838	     -7.49999987	     30.76820528	     -3.94080723	     -2.66097411	     64.62080403	      1.12784580	     34.59297681	     -2.52778856	     -7.49999987	    -20.98690981	      1.47077704	      8.49410769	    -16.65503374	    -16.14397786	     -2.96338455	     60.10526533	     74.11937463	    -11.98021987	    -16.70751905	     12.19848669	     44.55444914	     66.18336142
      2.70000000	     -8.17604920	      0.83903233	     -0.61004725	      0.23472037	      1.10354028	     -0.57434689	     32.59389123	     -0.82893084	      4.65672481	     68.60558343	      1.19739332	     46.66964614	     -2.67860707	     -7.49999987	     32.00912816	     -4.11538623	     -2.69370766	     67.25757733	      1.17386617	     35.67700612	     -2.67214449	     -7.49999987	    -21.58649954	      1.22184820	      8.29773653	     -9.75154331	    -15.61519834	     -1.68054862	     59.06998132	     75.44890093	     -7.46938417	    -15.69811144	     11.41220756	     44.55166625	     66.35116612
      2.71666670	     -8.46364682	      0.94497257	     -0.55866334	      0.23427034	      1.09612441	     -0.57543690	     33.81557303	     -0.98564521	      4.53222995	     70.71683030	      1.23424153	     47.64343293	     -2.59933755	     -7.49999987	     33.08846628	     -4.12015034	     -2.58915805	     69.45130346	      1.21215392	     36.53818010	     -2.93073152	     -7.49999987	    -22.62167490	      1.04127890	      9.06709731	     -4.03081589	    -15.34862653	     -1.85097898	     60.57770350	     75.56591223	     -3.01994236	    -14.82398365	     11.17098145	     45.71817757	     66.39617010
      2.73333330	     -9.27335359	      1.03340185	     -0.42004171	      0.23435251	      1.09211365	     -0.57598033	     35.38562371	     -1.12491232	      4.41532584	     72.30552267	      1.26196944	     48.17311513	     -2.97987088	     -7.49999987	     34.68438327	     -4.18375386	     -2.54665081	     71.31281881	      1.24464349	     37.07092297	     -3.12264266	     -7.49999987	    -23.56934580	      0.89585914	      9.63181209	      3.31936393	    -15.41349415	     -1.92278661	     62.54415545	     75.70285357	      3.33297163	    -14.47815655	     10.73216630	     47.30427149	     66.47085154
      2.75000000	     -9.71418651	      1.20230844	     -0.39466343	      0.24405709	      1.09059539	     -0.57957783	     35.99988410	     -1.32823293	      4.48362081	     73.16188464	      1.27691577	     48.28511721	     -3.32471609	     -7.49999987	     35.36992837	     -4.00431712	     -2.58568587	     72.42416347	      1.26404011	     37.19002751	     -3.12566027	     -7.49999987	    -23.85052482	      0.87972928	      6.02823863	     14.54941488	    -15.91813030	      7.20785272	     62.40971061	     81.21127420	      5.87302778	    -15.50912578	      6.13971850	     51.16028958	     70.12339455
      2.76666670	     -9.52823521	      1.17806461	     -0.27426135	      0.26144310	      1.09140982	     -0.58559302	     34.87860209	     -1.55675551	      4.34984974	     72.83876744	      1.27127631	     48.16353871	     -3.87567800	     -7.49999987	     34.40862594	     -3.65565266	     -2.29330522	     72.25748277	      1.26113098	     36.66045690	     -3.45075103	     -7.49999987	    -24.42076698	      1.23125212	      6.06481515	     21.36016323	    -17.03888345	      8.23282268	     67.52389780	     82.28050488	     11.37637979	    -15.98907023	      6.18358845	     54.93793618	     71.23821352
      2.78333330	     -8.99529061	      1.10743448	      0.00516862	      0.27897373	      1.09753383	     -0.59204643	     32.48440262	     -1.84684508	      4.23126069	     71.41222252	      1.24637841	     47.43245575	     -4.87125319	     -7.49999987	     32.27886929	     -3.04002234	     -1.87103151	     71.08188637	      1.24061296	     35.41214084	     -3.96607557	     -7.49999987	    -24.24294564	      1.69715553	      6.56585354	     28.17954699	    -17.95691233	      9.28394443	     73.08332562	     83.72996450	     16.29267107	    -16.88821668	      6.58051541	     61.73687327	     72.80579763
      2.80000000	     -9.33641071	      0.93699457	      0.36058257	      0.27982668	      1.09857668	     -0.59224537	     31.04799952	     -2.04741477	      3.85455559	     69.79857049	      1.21821487	     46.41999695	     -5.85101212	     -7.49999987	     31.42721669	     -2.65424949	     -1.48046819	     69.89073815	      1.21982350	     34.69685104	     -3.57901265	     -7.49999987	    -23.07350657	      2.40288731	      5.27323802	     35.89587248	    -17.59201946	     12.32254996	     79.71674958	     92.39203019	     16.41270341	    -19.49324286	      2.37092970	     74.29472224	     82.41647698
      2.81666670	     -9.20356088	      0.90639399	      0.93841122	      0.29556698	      1.10735269	     -0.59182762	     28.42636242	     -2.37423998	      3.39287194	     67.23676567	      1.17350294	     44.61352945	     -7.36754877	     -7.49999987	     29.42355606	     -2.07821592	     -0.96532989	     67.61840011	      1.18016372	     33.35613639	     -3.38027230	     -7.49999987	    -22.11024740	      2.68860360	      5.87224454	     39.58947976	    -20.00774246	     14.22800602	     84.20866822	     92.08554080	     18.91335887	    -21.85274223	      3.66170048	     85.66508930	     87.57627816
      2.83333330	     -9.06206760	      0.57788821	      1.72937863	      0.30550815	      1.12720126	     -0.59403514	     25.52235573	     -2.37394689	      2.53072179	     63.66340139	      1.11113597	     41.60874172	     -9.57782232	     -7.49999987	     27.13436473	     -1.90057139	     -0.33347418	     64.59088043	      1.12732353	     31.83525793	     -2.75808731	     -7.49999987	    -20.92427285	      3.11322168	      6.71374425	     45.30163626	    -21.78445855	     13.70960974	     85.25877670	     89.94492971	     26.08148295	    -23.28451414	      5.76614741	     95.31148793	     86.17423894
      2.85000000	     -8.91827605	      0.87804490	      2.46342829	      0.31674666	      1.13753569	     -0.59756348	     22.57564901	     -3.13756288	      1.71008863	     60.06155912	      1.04827196	     38.17334814	    -11.30047599	     -7.49999987	     24.73714870	     -1.19616916	     -0.08794819	     61.43648046	      1.07226886	     28.81045161	     -3.49521070	     -7.49999987	    -19.97455469	      2.88177867	      5.76545317	     49.57861180	    -21.40681178	     13.66257035	     87.24621770	     91.40237347	     30.31262983	    -25.77416119	      4.48295662	    105.33827414	     90.46338149
